<svg width="40" height="52" viewBox="0 0 40 52" fill="none" xmlns="http://www.w3.org/2000/svg">
<path fill-rule="evenodd" clip-rule="evenodd" d="M39.0652 18.7801V0.897236C27.8738 6.91135 19.631 0.299774 19.631 0.299774C19.631 0.299774 11.4265 6.91135 0.234878 0.897236V18.7801C0.234878 18.7801 -0.140949 41.9992 19.6536 50.8813H19.6567C39.451 41.9992 39.0652 18.7801 39.0652 18.7801Z" fill="#362B29" stroke="#BA9842" stroke-width="0.467278" stroke-miterlimit="22.9256"/>
<path d="M4.55859 13.7457V7.776H5.33189V13.7457H4.55859Z" fill="#BA9842" stroke="#BA9842" stroke-width="0.0958454" stroke-miterlimit="22.9256"/>
<path d="M6.80859 13.7457V12.9114H7.62555V13.7457H6.80859Z" fill="#BA9842" stroke="#BA9842" stroke-width="0.0958454" stroke-miterlimit="22.9256"/>
<path d="M9.89453 13.7457V7.776H12.0975C12.6161 7.776 12.9987 7.81436 13.2451 7.89008C13.5823 7.99348 13.8511 8.18492 14.0524 8.4644C14.2534 8.74389 14.3537 9.08715 14.3537 9.49443C14.3537 10.0321 14.1901 10.4706 13.8628 10.8098C13.535 11.1497 12.9694 11.3186 12.1654 11.3186H10.6677V13.7457H9.89453ZM10.6677 10.6141H12.1799C12.6566 10.6141 13.0052 10.5245 13.2257 10.3437C13.4461 10.1635 13.5563 9.89102 13.5563 9.527C13.5563 9.29116 13.5018 9.0884 13.3934 8.92061C13.2847 8.75219 13.1535 8.63685 12.9993 8.57434C12.8454 8.5117 12.5676 8.48101 12.1654 8.48101H10.6677V10.6141Z" fill="#BA9842" stroke="#BA9842" stroke-width="0.0958454" stroke-miterlimit="22.9256"/>
<path d="M12.75 13.7457V12.9114H13.5666V13.7457H12.75Z" fill="#BA9842" stroke="#BA9842" stroke-width="0.0958454" stroke-miterlimit="22.9256"/>
<path d="M23.0391 11.8241L23.7686 11.759C23.8072 12.0871 23.8955 12.3434 24.0336 12.5267C24.1712 12.7098 24.3683 12.8571 24.6242 12.968C24.8805 13.0797 25.169 13.1353 25.4899 13.1353C25.9504 13.1353 26.3079 13.0407 26.5621 12.8527C26.8173 12.6643 26.9437 12.4196 26.9437 12.1194C26.9437 11.9433 26.8975 11.7897 26.8055 11.6579C26.7134 11.5268 26.5738 11.4193 26.3871 11.3352C26.201 11.2508 25.7978 11.1319 25.1785 10.9789C24.6274 10.8418 24.2354 10.7041 24.0017 10.5659C23.7686 10.4271 23.5867 10.2514 23.457 10.0382C23.3274 9.8254 23.2626 9.58428 23.2626 9.31536C23.2626 8.83198 23.449 8.43728 23.8219 8.13062C24.1947 7.82384 24.6971 7.67014 25.3295 7.67014C25.7639 7.67014 26.1442 7.74221 26.4698 7.88585C26.796 8.03 27.0483 8.23628 27.2285 8.5052C27.4082 8.77349 27.5052 9.09033 27.5181 9.45359L26.7735 9.51107C26.7344 9.12278 26.5962 8.83487 26.3576 8.64758C26.12 8.46029 25.7849 8.36696 25.3538 8.36696C24.9162 8.36696 24.582 8.4491 24.352 8.61274C24.1219 8.77714 24.0067 8.98983 24.0067 9.25033C24.0067 9.49208 24.0912 9.67886 24.2595 9.81232C24.4283 9.94539 24.8074 10.0801 25.3972 10.216C25.9741 10.3503 26.3787 10.466 26.6121 10.5641C26.9686 10.7167 27.238 10.9168 27.42 11.165C27.602 11.4133 27.693 11.7094 27.693 12.0539C27.693 12.3955 27.5973 12.7068 27.4058 12.9875C27.2144 13.2684 26.9544 13.4816 26.6257 13.6283C26.2961 13.7748 25.9001 13.848 25.4365 13.848C24.7135 13.848 24.137 13.666 23.7077 13.302C23.278 12.9385 23.0552 12.4457 23.0391 11.8241Z" fill="#BA9842" stroke="#BA9842" stroke-width="0.0958454" stroke-miterlimit="22.9256"/>
<path d="M28.8711 13.7457V12.9114H29.6877V13.7457H28.8711Z" fill="#BA9842" stroke="#BA9842" stroke-width="0.0958454" stroke-miterlimit="22.9256"/>
<path d="M34.6252 11.6525L35.4036 11.8524C35.2315 12.523 34.9307 13.0231 34.5011 13.3528C34.0715 13.6831 33.5485 13.848 32.9328 13.848C32.3914 13.848 31.9288 13.7368 31.5445 13.516C31.1605 13.2943 30.8455 12.939 30.6009 12.4503C30.3561 11.9612 30.2344 11.3837 30.2344 10.7183C30.2344 10.0605 30.3561 9.50441 30.6014 9.04945C30.8467 8.59438 31.1789 8.25112 31.5972 8.01893C32.0156 7.78661 32.4823 7.67014 32.9988 7.67014C33.5638 7.67014 34.0484 7.8173 34.4537 8.111C34.8597 8.4047 35.144 8.83613 35.306 9.40529L34.5473 9.58843C34.2877 8.76041 33.7666 8.34621 32.9847 8.34621C32.5947 8.34621 32.2567 8.43023 31.9713 8.59677C31.6858 8.76406 31.4577 9.02405 31.2869 9.37749C31.1167 9.73081 31.0309 10.1775 31.0309 10.7183C31.0309 11.5363 31.2035 12.1496 31.5469 12.5586C31.8903 12.9675 32.3476 13.1719 32.9186 13.1719C33.3398 13.1719 33.7039 13.046 34.01 12.795C34.3167 12.5438 34.5211 12.1632 34.6252 11.6525Z" fill="#BA9842" stroke="#BA9842" stroke-width="0.0958454" stroke-miterlimit="22.9256"/>
<path d="M36.1758 13.7457V12.9114H36.9931V13.7457H36.1758Z" fill="#BA9842" stroke="#BA9842" stroke-width="0.0958454" stroke-miterlimit="22.9256"/>
<path d="M13.9375 37.8472H16.4335V37.2101H13.9375V37.8472Z" fill="#BA9842"/>
<path d="M22.4062 37.8472H24.9019V37.2101H22.4062V37.8472Z" fill="#BA9842"/>
<path d="M15.0078 37.7687L19.6533 48.5418L24.0751 37.8437L23.4496 37.5854L19.6403 46.8013L15.6298 37.5009L15.0078 37.7687Z" fill="#BA9842"/>
<path d="M23.6952 43.8554C23.2973 44.2644 22.744 44.5179 22.1281 44.5187C21.5239 44.5179 20.9799 44.2745 20.584 43.8785C20.1881 43.4826 19.9442 42.9382 19.9442 42.3343C19.9442 41.7303 20.1881 41.1862 20.584 40.7901C20.9799 40.3942 21.5239 40.1508 22.1281 40.1508C22.7705 40.1508 23.3456 40.4261 23.7459 40.867L24.2081 40.4481C23.6952 39.8825 22.952 39.5261 22.1281 39.5268C21.3537 39.5261 20.6498 39.8412 20.1428 40.3487C19.6353 40.8563 19.3199 41.5601 19.3203 42.3343C19.3199 43.1091 19.6353 43.8129 20.1428 44.3199C20.6498 44.8276 21.3537 45.1425 22.1281 45.1425C22.9177 45.1425 23.6339 44.8152 24.1433 44.2897L23.6952 43.8554Z" fill="#BA9842"/>
<path d="M15.2925 39.9848H14.9805V45.0427L15.2577 45.074C15.2667 45.0753 15.4124 45.0912 15.6421 45.0912C15.8699 45.0912 16.18 45.0753 16.5229 45.012C16.7795 44.9641 17.0554 44.8896 17.3278 44.772C17.5318 44.6834 17.7346 44.5706 17.9244 44.4264C18.2085 44.21 18.463 43.9205 18.6417 43.5483C18.821 43.1753 18.9236 42.7239 18.9233 42.1885C18.9238 41.6447 18.7966 41.1944 18.5767 40.8392C18.4124 40.5728 18.1993 40.3624 17.9656 40.2011C17.6146 39.9594 17.2199 39.824 16.8446 39.7465C16.4693 39.6692 16.1112 39.649 15.8266 39.649C15.6899 39.649 15.5703 39.6537 15.4745 39.6592C15.3791 39.6645 15.3059 39.6709 15.27 39.6733L14.9805 39.6941V39.9848H15.2925L15.3147 40.2956C15.3581 40.2927 15.4222 40.2874 15.5096 40.2821C15.5963 40.2772 15.7042 40.2732 15.8266 40.2732C16.0533 40.2732 16.3301 40.2879 16.6122 40.3376C16.8242 40.3742 17.0388 40.4309 17.2379 40.5137C17.387 40.5757 17.5278 40.6525 17.6537 40.7447C17.8428 40.8849 17.999 41.0586 18.1131 41.289C18.2266 41.5195 18.299 41.8096 18.2991 42.1885C18.2986 42.7303 18.1792 43.125 17.9996 43.4259C17.8646 43.651 17.6933 43.8255 17.4976 43.9654C17.205 44.1752 16.8555 44.3035 16.5198 44.376C16.1848 44.4494 15.8657 44.4671 15.6421 44.4671C15.5418 44.4671 15.4609 44.4636 15.4059 44.4599C15.3784 44.4583 15.3578 44.4565 15.3441 44.4553L15.3298 44.4541L15.3267 44.4534L15.3237 44.4843L15.327 44.4534H15.3267L15.3237 44.4843L15.327 44.4534L15.2925 44.7637H15.6045V39.9848H15.2925Z" fill="#BA9842"/>
<path fill-rule="evenodd" clip-rule="evenodd" d="M1.66797 16.8826H15.3158L19.3518 4.297L23.2738 16.8878H37.1413L26.1493 25.0601L30.3968 38.2301L19.4579 30.2115L8.30596 38.2301L12.7668 25.1665L1.66797 16.8826Z" fill="#BA9842"/>
<path d="M29.3368 23.361C29.3368 27.672 24.8467 31.1671 19.3073 31.1671C13.7677 31.1671 9.27734 27.672 9.27734 23.361C9.27734 19.0501 13.7677 15.5546 19.3073 15.5546C24.8467 15.5546 29.3368 19.0501 29.3368 23.361Z" fill="#5E82AB"/>
<path d="M28.8678 20.024C28.077 18.5579 26.7663 17.3227 25.1269 16.454C24.1091 15.9139 22.9638 15.5155 21.7352 15.2905C21.7314 15.2886 21.7278 15.2862 21.7244 15.2852L21.7229 15.2881C20.9766 15.1522 20.2003 15.08 19.4025 15.08C16.5807 15.0807 14.0209 15.9765 12.1553 17.4397C11.223 18.1719 10.4639 19.0466 9.93716 20.024C9.41039 21.0015 9.11694 22.0818 9.11719 23.2151C9.11694 24.3486 9.41039 25.4288 9.93716 26.4063C10.7278 27.8724 12.0392 29.1069 13.6778 29.9763C15.3172 30.8455 17.2862 31.3496 19.4025 31.3501C22.2242 31.3496 24.7841 30.4537 26.6494 28.9905C27.5818 28.2584 28.3411 27.3837 28.8678 26.4063C29.3947 25.4288 29.6879 24.3486 29.6879 23.2151C29.6879 22.0818 29.3947 21.0015 28.8678 20.024ZM29.0834 22.6473H26.988C26.9306 21.7773 26.7344 20.9393 26.4178 20.1533C26.929 20.008 27.4466 19.8444 27.9694 19.6605C28.1119 19.8674 28.2425 20.0801 28.3595 20.2976C28.7549 21.0321 29.0049 21.8211 29.0834 22.6473ZM25.064 18.8467C25.2679 19.144 25.4499 19.4536 25.611 19.7728C25.2519 19.865 24.8958 19.9478 24.544 20.0221C24.2847 19.2332 23.929 18.4881 23.491 17.7986C23.6893 17.7589 23.8885 17.7157 24.0889 17.6685C24.4512 18.0354 24.7784 18.4289 25.064 18.8467ZM22.0132 28.2773C22.2982 27.544 22.5227 26.7716 22.6798 25.9691C23.0997 26.0257 23.5263 26.0936 23.9598 26.1746C23.6881 26.9683 23.3131 27.714 22.85 28.3978C22.5681 28.3505 22.2889 28.3109 22.0132 28.2773ZM22.4675 28.9219C22.0032 29.5159 21.4689 30.0532 20.8775 30.5229C21.217 29.9916 21.5207 29.4267 21.7834 28.8326C22.0092 28.8583 22.2372 28.8877 22.4675 28.9219ZM16.6282 28.9071C16.85 28.8764 17.081 28.8481 17.3201 28.8227C17.5837 29.4201 17.8887 29.9887 18.2304 30.5229C17.6335 30.0488 17.095 29.5064 16.6282 28.9071ZM17.0214 30.2197C16.457 29.8953 15.9344 29.52 15.4616 29.1017C15.6268 29.0697 15.7993 29.0378 15.9798 29.0071C16.2946 29.4384 16.6433 29.8439 17.0214 30.2197ZM16.2452 28.3794C15.769 27.672 15.3866 26.898 15.1151 26.0747C15.5246 26.0073 15.9581 25.9471 16.414 25.8964C16.571 26.7212 16.7988 27.5143 17.0903 28.2671C16.7958 28.3002 16.5136 28.3382 16.2452 28.3794ZM22.3666 23.228C22.3666 23.9455 22.311 24.6476 22.2059 25.3283C21.3863 25.2356 20.5954 25.1848 19.8373 25.1682V23.2251H22.3664C22.3664 23.2256 22.3666 23.2269 22.3666 23.228ZM16.7413 23.228C16.7413 23.2269 16.7413 23.2256 16.7413 23.2251H19.2597V25.1618C19.2577 25.1618 19.2557 25.1618 19.2535 25.1618C18.4202 25.1618 17.6311 25.2013 16.8926 25.268C16.7936 24.6057 16.7413 23.9242 16.7413 23.228ZM16.7535 22.6473C16.7763 22.1031 16.8304 21.5694 16.914 21.0475C17.6464 21.113 18.4283 21.152 19.2535 21.152C19.2557 21.152 19.2577 21.152 19.2597 21.152V22.6473H16.7535ZM19.8373 22.6473V21.1455C20.5885 21.1285 21.3721 21.0788 22.1832 20.9879C22.2725 21.5285 22.3305 22.0823 22.3543 22.6473H19.8373ZM19.8373 20.5676V18.1826C20.3287 18.1754 20.8379 18.1506 21.3605 18.1046C21.6651 18.8349 21.9068 19.6097 22.0766 20.4187C21.3025 20.5045 20.5551 20.5512 19.8373 20.5676ZM19.2597 20.5748C19.2577 20.5748 19.2557 20.5748 19.2535 20.5748C18.4664 20.5748 17.7198 20.5381 17.0188 20.4772C17.1888 19.6493 17.434 18.8569 17.7444 18.1104C18.2236 18.1501 18.7299 18.1765 19.2597 18.1831V20.5748ZM16.4409 20.4193C15.9703 20.3679 15.5229 20.3053 15.1016 20.2361C15.3688 19.4123 15.7478 18.6382 16.2198 17.9303C16.5117 17.9752 16.8203 18.0165 17.1441 18.0525C16.8437 18.8025 16.6066 19.5948 16.4409 20.4193ZM16.3391 20.9896C16.2533 21.531 16.1981 22.0839 16.1755 22.6473H14.6567C14.6896 22.0114 14.7859 21.392 14.9394 20.7945C15.379 20.8685 15.8464 20.9347 16.3391 20.9896ZM16.1637 23.2251C16.1637 23.2256 16.1637 23.2269 16.1637 23.228C16.1637 23.9437 16.2169 24.6441 16.3175 25.3259C15.8369 25.3804 15.3801 25.4447 14.9499 25.5169C14.7579 24.7836 14.6523 24.0158 14.6449 23.2251H16.1637ZM16.9907 25.8389C17.6996 25.7762 18.456 25.739 19.2535 25.739C19.2557 25.739 19.2577 25.739 19.2597 25.739V28.1307C18.7089 28.1373 18.1835 28.1656 17.6878 28.2081C17.3869 27.4593 17.1516 26.6664 16.9907 25.8389ZM19.8373 25.7456C20.5639 25.7627 21.3216 25.8106 22.1055 25.898C21.9448 26.707 21.7122 27.4818 21.4174 28.2146C20.8746 28.1651 20.3465 28.1383 19.8373 28.1307V25.7456ZM22.7792 25.3999C22.887 24.6954 22.9436 23.9691 22.9436 23.228C22.9436 23.2269 22.9436 23.2256 22.9436 23.2251H24.4628C24.4549 24.053 24.3399 24.8557 24.1307 25.6196C23.673 25.5329 23.2221 25.4602 22.7792 25.3999ZM22.9321 22.6473C22.9089 22.0585 22.8495 21.4807 22.7571 20.9168C23.2109 20.8554 23.673 20.781 24.1422 20.6918C24.3115 21.3204 24.4165 21.9748 24.4509 22.6473H22.9321ZM22.6519 20.3479C22.4864 19.5453 22.2532 18.774 21.9596 18.0425C22.261 18.0064 22.5665 17.9633 22.8755 17.9113C23.3344 18.5963 23.7058 19.3427 23.9735 20.1362C23.5258 20.2202 23.0853 20.2899 22.6519 20.3479ZM23.1385 17.279C22.8726 16.9126 22.5823 16.5657 22.2704 16.2384C22.7389 16.522 23.1763 16.8411 23.579 17.1909C23.4316 17.2221 23.2847 17.2518 23.1385 17.279ZM22.4978 17.3865C22.2364 17.4261 21.9776 17.4597 21.7216 17.4883C21.439 16.8683 21.1118 16.2798 20.7451 15.7301C20.7876 15.7347 20.8307 15.7389 20.8732 15.7444C21.4796 16.2247 22.0254 16.776 22.4978 17.3865ZM21.1115 17.5455C20.676 17.5791 20.2502 17.5987 19.8373 17.6052V15.6657C19.892 15.6673 19.9467 15.6697 20.0013 15.6721C20.4209 16.2491 20.7932 16.8765 21.1115 17.5455ZM19.2597 17.6057C18.8205 17.5998 18.3978 17.5803 17.9937 17.5508C18.3142 16.8753 18.6903 16.243 19.1142 15.662C19.1625 15.661 19.2112 15.6603 19.2597 15.6598V17.6057ZM17.3817 17.4971C17.1098 17.4694 16.8483 17.4374 16.5977 17.4025C17.0847 16.7708 17.6497 16.201 18.2792 15.7077C18.3139 15.7046 18.3488 15.7029 18.383 15.6999C18.0063 16.2614 17.6707 16.8622 17.3817 17.4971ZM15.9528 17.3021C15.7948 17.2748 15.6431 17.247 15.4968 17.2187C15.9085 16.8581 16.3564 16.5297 16.8371 16.2384C16.5187 16.5722 16.2231 16.9273 15.9528 17.3021ZM14.8021 17.0709C14.5326 17.0083 14.2945 16.9469 14.0916 16.8908C14.6551 16.6036 15.2592 16.36 15.8967 16.1674C15.5078 16.4445 15.1417 16.7465 14.8021 17.0709ZM14.9843 17.7026C15.1768 17.7446 15.3822 17.7855 15.5997 17.8256C15.149 18.54 14.7868 19.3149 14.5279 20.1344C14.1364 20.0605 13.7705 19.982 13.4329 19.9018C13.6087 19.537 13.8126 19.1842 14.0434 18.8467C14.3205 18.4426 14.6355 18.0603 14.9843 17.7026ZM14.3693 20.693C14.2103 21.3228 14.1113 21.9764 14.0789 22.6473H12.6983C12.7524 21.879 12.9245 21.1392 13.1982 20.44C13.5575 20.5269 13.9484 20.6125 14.3693 20.693ZM14.0676 23.2251C14.0747 24.0501 14.1825 24.852 14.3796 25.6184C13.9497 25.7007 13.5509 25.7881 13.1853 25.8767C12.8632 25.0436 12.686 24.1523 12.6797 23.2251H14.0676ZM14.5403 26.1757C14.8031 26.9953 15.1688 27.7696 15.623 28.4834C15.386 28.5267 15.1635 28.5716 14.9556 28.6165C14.64 28.2902 14.3518 27.9445 14.0957 27.5787C13.836 27.2088 13.6096 26.8194 13.4169 26.4152C13.7624 26.3331 14.1378 26.2521 14.5403 26.1757ZM14.7721 29.25C15.1766 29.6401 15.6187 29.9992 16.0943 30.3212C15.3275 30.1044 14.606 29.8148 13.944 29.4639C14.1689 29.3994 14.4473 29.3255 14.7721 29.25ZM17.9288 28.7678C18.3527 28.7353 18.797 28.714 19.2597 28.7075V30.771C19.2047 30.7705 19.1498 30.7693 19.0951 30.7688C18.6504 30.1547 18.2589 29.4845 17.9288 28.7678ZM19.8373 28.7086C20.2707 28.7145 20.718 28.7358 21.1761 28.773C20.8491 29.4828 20.4617 30.1477 20.0213 30.7563C19.9603 30.7592 19.899 30.7621 19.8373 30.7646V28.7086ZM23.1108 29.0296C23.2777 29.0603 23.4457 29.0946 23.6141 29.1306C23.15 29.5371 22.6379 29.9024 22.0863 30.2197C22.4577 29.8504 22.8007 29.4526 23.1108 29.0296ZM23.4677 28.5107C23.9088 27.8222 24.2672 27.0763 24.5304 26.2882C24.8921 26.3643 25.2582 26.4501 25.6281 26.545C25.4495 26.9032 25.2438 27.2484 25.0121 27.5787C24.7467 27.9575 24.4472 28.3156 24.1183 28.6519C23.9001 28.6004 23.6833 28.5532 23.4677 28.5107ZM24.6974 25.7337C24.9141 24.9325 25.0324 24.0922 25.0401 23.2251H26.4282C26.4212 24.202 26.2256 25.1393 25.8699 26.011C25.4748 25.9082 25.0839 25.8159 24.6974 25.7337ZM25.0288 22.6473C24.9943 21.9358 24.8853 21.2431 24.7089 20.5771C25.0871 20.4967 25.4695 20.4069 25.8559 20.3064C26.1611 21.0446 26.3515 21.83 26.4094 22.6473H25.0288ZM27.6062 19.1754C27.1257 19.3403 26.6505 19.4879 26.1802 19.6198C25.9945 19.2393 25.7812 18.8716 25.5407 18.5207C25.2972 18.1655 25.0268 17.8269 24.7322 17.5065C24.9669 17.4432 25.2032 17.3734 25.44 17.299C25.7395 17.4846 26.0241 17.6832 26.2935 17.8943C26.7887 18.2831 27.2284 18.7126 27.6062 19.1754ZM24.7414 16.9043C24.5818 16.9493 24.4226 16.9924 24.2643 17.0326C24.0088 16.7909 23.7392 16.5621 23.456 16.3477C23.9041 16.5084 24.3336 16.6945 24.7414 16.9043ZM13.3875 17.2849C13.6018 17.3534 13.9223 17.4486 14.3332 17.5515C14.0549 17.8587 13.7989 18.1819 13.567 18.5207C13.2975 18.9141 13.0621 19.3277 12.8619 19.7586C12.2176 19.5878 11.7046 19.4213 11.3457 19.2936C11.2781 19.2694 11.2165 19.2469 11.1599 19.2262C11.7528 18.4857 12.5066 17.8274 13.3875 17.2849ZM10.4456 20.2976C10.5539 20.0972 10.6742 19.901 10.8042 19.7084C11.144 19.8401 11.77 20.0636 12.635 20.2958C12.3506 21.0411 12.1733 21.8292 12.1197 22.6473H9.72169C9.80068 21.8211 10.0502 21.0321 10.4456 20.2976ZM9.69465 23.2251H12.1025C12.1083 24.2013 12.2903 25.1416 12.6215 26.021C11.7074 26.2673 11.0621 26.5033 10.7415 26.6292C10.635 26.4665 10.5364 26.3011 10.4456 26.132C9.96219 25.235 9.69666 24.2545 9.69465 23.2251ZM11.0877 27.1147C11.434 26.9837 12.0336 26.7744 12.8456 26.5589C13.0623 27.0315 13.3229 27.483 13.6229 27.9109C13.832 28.2094 14.0618 28.4948 14.3072 28.7683C13.8224 28.8906 13.4663 29.0018 13.2655 29.0678C13.0023 28.9008 12.7506 28.7234 12.5119 28.5361C11.9671 28.1082 11.4884 27.6308 11.0877 27.1147ZM23.256 30.1518C23.6252 29.8858 23.9716 29.5974 24.295 29.2889C24.4912 29.3393 24.6879 29.3928 24.8855 29.4497C24.8758 29.4557 24.8664 29.461 24.8566 29.4662C24.3552 29.7316 23.8195 29.9614 23.256 30.1518ZM25.5626 29.0526C25.2937 28.9658 25.0258 28.8866 24.7595 28.8137C25.0209 28.5267 25.2639 28.2252 25.4849 27.9109C25.7551 27.5256 25.9922 27.1196 26.1954 26.6976C26.6841 26.8353 27.1788 26.9895 27.6786 27.1632C27.1134 27.8789 26.3977 28.5178 25.5626 29.0526ZM28.3595 26.132C28.2602 26.317 28.1502 26.4979 28.0321 26.6758C27.4921 26.4844 26.9578 26.314 26.4301 26.1639C26.7965 25.2438 26.9993 24.2545 27.0051 23.2251H29.1106C29.1088 24.2545 28.8429 25.235 28.3595 26.132Z" fill="#BA9842"/>
</svg>
